<svg xmlns="http://www.w3.org/2000/svg" xmlns:xlink="http://www.w3.org/1999/xlink" width="300" zoomAndPan="magnify" viewBox="0 0 224.87999 225" height="300" preserveAspectRatio="xMidYMid meet" version="1.2"><defs><clipPath id="bba2677821"><path d="M 0.445312 9.539062 L 224.574219 9.539062 L 224.574219 215.679688 L 0.445312 215.679688 Z M 0.445312 9.539062 "/></clipPath></defs><g id="97cbf17302"><path style=" stroke:none;fill-rule:nonzero;fill:#1d1d1d;fill-opacity:1;" d="M 168.871094 135.855469 C 168.789062 138.769531 167.648438 140.5625 165.269531 141.625 C 162.828125 142.714844 160.945312 141.753906 159.398438 140.007812 C 158.515625 139.011719 157.960938 137.722656 157.292969 136.542969 C 155.628906 133.613281 153.210938 131.558594 149.792969 131.582031 C 146.472656 131.605469 143.742188 133.164062 142.101562 136.253906 C 141.609375 137.179688 141.121094 138.113281 140.53125 138.976562 C 138.648438 141.738281 136.046875 142.671875 133.566406 141.535156 C 130.835938 140.28125 129.660156 137.671875 130.582031 134.417969 C 132.542969 127.480469 137.230469 123.136719 144.015625 121.109375 C 154.007812 118.125 165.304688 124.078125 168.308594 133.765625 C 168.554688 134.558594 168.742188 135.371094 168.871094 135.855469 Z M 168.871094 135.855469 "/><g clip-rule="nonzero" clip-path="url(#bba2677821)"><path style=" stroke:none;fill-rule:nonzero;fill:#1d1d1d;fill-opacity:1;" d="M 224.515625 127.140625 C 224.441406 117.773438 219.167969 111.183594 209.972656 109.222656 C 207.972656 108.796875 207.214844 107.925781 206.761719 106.148438 C 200.375 81.109375 174.972656 64.59375 153.140625 65.128906 C 141.683594 65.410156 130.21875 65.179688 118.28125 65.179688 C 118.28125 58.027344 118.226562 51.300781 118.359375 44.578125 C 118.375 43.847656 119.324219 42.875 120.085938 42.460938 C 126.167969 39.121094 130.265625 32.296875 129.472656 26.179688 C 128.464844 18.425781 124.421875 12.855469 116.871094 10.382812 C 115.417969 9.90625 113.957031 9.652344 112.511719 9.601562 C 111.0625 9.652344 109.601562 9.90625 108.148438 10.382812 C 100.597656 12.855469 96.554688 18.425781 95.546875 26.179688 C 94.753906 32.296875 98.851562 39.121094 104.933594 42.460938 C 105.695312 42.875 106.644531 43.847656 106.660156 44.578125 C 106.792969 51.300781 106.738281 58.027344 106.738281 65.179688 C 94.800781 65.179688 83.335938 65.410156 71.878906 65.128906 C 50.046875 64.59375 24.644531 81.109375 18.257812 106.148438 C 17.804688 107.925781 17.046875 108.796875 15.046875 109.222656 C 5.851562 111.183594 0.578125 117.773438 0.503906 127.140625 C 0.441406 134.828125 0.46875 142.519531 0.566406 150.203125 C 0.671875 158.628906 6.132812 165.59375 14.355469 167.609375 C 16.410156 168.113281 17.222656 169.003906 17.6875 171.023438 C 23.535156 196.417969 47.015625 215.078125 73.027344 215.089844 C 86.1875 215.09375 99.347656 215.113281 112.511719 215.113281 C 125.671875 215.113281 138.832031 215.09375 151.992188 215.089844 C 178.003906 215.078125 201.484375 196.417969 207.332031 171.023438 C 207.796875 169.003906 208.609375 168.113281 210.664062 167.609375 C 218.886719 165.59375 224.347656 158.628906 224.453125 150.203125 C 224.550781 142.519531 224.578125 134.828125 224.515625 127.140625 Z M 197.179688 154.820312 C 197.0625 159.402344 196.480469 164.078125 195.324219 168.507812 C 190.285156 187.847656 174.25 201.4375 154.324219 202.4375 C 140.417969 203.132812 126.449219 202.578125 112.511719 202.570312 C 98.570312 202.578125 84.601562 203.132812 70.695312 202.4375 C 50.769531 201.4375 34.734375 187.847656 29.695312 168.507812 C 28.539062 164.078125 27.957031 159.402344 27.839844 154.820312 C 27.574219 144.398438 27.691406 133.964844 27.773438 123.539062 C 27.976562 97.3125 48.078125 77.355469 74.3125 77.320312 C 87.046875 77.304688 99.777344 77.300781 112.511719 77.296875 C 125.242188 77.300781 137.972656 77.304688 150.707031 77.320312 C 176.941406 77.355469 197.042969 97.3125 197.246094 123.539062 C 197.328125 133.964844 197.445312 144.398438 197.179688 154.820312 Z M 197.179688 154.820312 "/></g><path style=" stroke:none;fill-rule:nonzero;fill:#1d1d1d;fill-opacity:1;" d="M 139.183594 162.246094 C 136.683594 161.160156 133.867188 162.003906 131.910156 164.429688 C 131.777344 164.589844 131.640625 164.75 131.53125 164.929688 C 127.703125 171.3125 120.261719 175.035156 112.511719 175.222656 C 104.757812 175.035156 97.316406 171.3125 93.488281 164.929688 C 93.378906 164.75 93.242188 164.589844 93.109375 164.429688 C 91.152344 162.003906 88.335938 161.160156 85.835938 162.246094 C 83.261719 163.367188 81.765625 166.265625 82.78125 169.375 C 83.46875 171.496094 84.730469 173.582031 86.207031 175.265625 C 93.1875 183.222656 102.226562 186.628906 112.511719 186.972656 C 122.792969 186.628906 131.832031 183.222656 138.8125 175.265625 C 140.289062 173.582031 141.550781 171.496094 142.238281 169.375 C 143.253906 166.265625 141.757812 163.367188 139.183594 162.246094 Z M 139.183594 162.246094 "/><path style=" stroke:none;fill-rule:nonzero;fill:#1d1d1d;fill-opacity:1;" d="M 91.578125 131.453125 C 91.660156 122.203125 84.535156 114.910156 75.375 114.867188 C 66.683594 114.828125 59.378906 122.152344 59.320312 130.964844 C 59.257812 140.476562 66.039062 147.511719 75.316406 147.554688 C 84.429688 147.59375 91.496094 140.601562 91.578125 131.453125 Z M 91.578125 131.453125 "/></g></svg>